<svg t="1712289120608" class="icon" viewBox="0 0 1024 1024" version="1.1" xmlns="http://www.w3.org/2000/svg" p-id="3042" width="128" height="128"><path d="M663.83707 324.96306c36.074154 0 74.01882-1.068864 111.829878 0.267216 48.499696 1.736904 97.533824 1.870512 145.36548 9.085343 89.250129 13.628014 129.733346 104.615047 83.104162 190.792192-3.473807 6.546791-6.947615 16.166565-4.676279 22.178924 20.308413 53.042367 4.809887 99.003512-24.851084 143.227753-4.008239 6.012359-6.947615 15.097701-5.745143 21.911708 10.287814 57.985862-8.283695 106.485558-46.094753 149.640935-5.210711 6.012359-9.085342 15.632133-8.818126 23.515004 2.67216 80.031179-45.961144 134.14241-125.190675 136.680961-162.600909 5.210711-324.266562-0.400824-481.389544-48.23248-18.972333-5.745143-32.065915-6.680399-44.892281 13.89523-14.830486 23.648612-41.017649 33.936426-69.208932 34.470858-32.466739 0.66804-64.933477 1.068864-97.266608 0C41.49111 1020.526193 1.007893 980.978231 0.740677 926.332568c-0.935256-169.949348-0.935256-339.765087 0-509.714435 0.267216-57.585038 41.017649-95.262488 99.003511-95.79692 25.385516-0.133608 50.771032 0.534432 76.156548-0.267216 25.251908-0.801648 48.766912 2.538552 70.545012 17.101821 4.809887 3.206591 14.696878 2.00412 20.842844-0.66804 95.663312-41.552081 138.417865-119.044708 147.904032-218.849867 1.202472-13.360798 1.33608-26.855204 3.607415-39.948786 10.55503-60.524414 75.488507-95.663312 130.80221-69.34254 67.338421 32.065915 102.610927 90.719817 112.898742 160.997613 7.081223 49.034128 1.33608 99.671551 1.336079 155.118862z m-86.711577 59.589158c4.409063-14.56327 7.081223-24.583868 10.421422-34.470858 16.433781-48.766912 22.178924-99.003512 17.502645-150.041759-4.275455-46.361968-22.178924-86.978794-57.317822-118.9111-14.028838-12.692758-29.260147-23.648612-49.301344-14.830486-18.705117 8.150087-19.105941 26.45438-20.174805 43.288985-9.085342 132.939938-64.666261 234.749217-192.796312 287.657976-21.911708 9.085342-30.729835 24.316652-30.596227 47.56444 0.400824 140.288377 0.400824 280.576753 0 420.86513-0.133608 21.911708 9.753382 33.401994 30.195403 39.414354 164.738637 48.633304 332.951081 63.463789 503.835685 55.046487 35.406114-1.736904 55.981743-19.640373 62.662141-54.244839 4.943495-25.519124-6.947615-41.552081-32.867562-43.021769-14.028838-0.801648-28.191283-0.400824-42.353729-0.267216-11.356678 0.133608-22.579748-1.068864-22.446141-15.632134 0.133608-13.494406 10.955854-14.162446 21.377277-14.028837 16.968213 0.133608 33.936426 0.66804 50.771031-0.66804 55.447311-4.409063 80.432003-30.596227 83.638594-86.043538 1.469688-24.583868-9.88699-39.414353-34.604466-41.685689-22.44614-2.00412-45.159496-0.133608-67.472029-2.404943-7.882871-0.801648-20.442021-8.283695-21.377276-14.162446-2.00412-13.22719 9.486166-16.166565 21.377276-15.899349 21.911708 0.400824 43.689809 0.66804 65.601518-0.133608 46.361968-1.736904 71.079444-26.187164 73.217171-80.164787 1.068864-26.988812-16.166565-44.758673-43.823416-47.56444-21.644492-2.271336-43.689809-0.534432-65.334301-2.805768-7.081223-0.801648-13.360798-8.818127-20.041197-13.494405 6.814007-5.344319 13.360798-14.429662 20.575628-15.23131 22.312532-2.137728 45.025889-0.267216 67.605637-1.202472 34.470858-1.33608 52.641543-17.903469 55.313703-48.90052 3.473807-40.483217-11.356678-64.265437-47.297224-69.743364-31.264267-4.676279-63.062965-7.482047-94.594448-8.016479-79.229531-0.935256-158.058238-0.267216-241.696832-0.267216zM224.667648 671.942979c0-82.436122 0.133608-164.872245-0.133608-247.308367-0.133608-28.592107-11.757502-41.151257-38.612706-41.418473-28.191283-0.400824-56.382567-0.400824-84.57385 0-25.919948 0.400824-37.811058 11.490286-37.811058 37.543841-0.400824 167.009972-0.267216 334.019944 0 500.896309 0 27.122419 11.89111 38.078274 39.280746 38.479098 25.385516 0.400824 50.771032 0.133608 76.156547 0.133608 34.604466-0.133608 45.693928-10.955854 45.693929-45.293105V671.942979z" fill="#666666" p-id="3043"></path><path d="M143.567605 833.207808c25.919948 0 47.163616 21.11006 46.8964 46.629184-0.267216 24.717476-20.709237 45.426712-45.426712 45.827536-26.45438 0.534432-47.163616-19.373157-47.698048-45.56032a45.961144 45.961144 0 0 1 46.22836-46.8964z m0.267216 21.510884c-8.016479 12.55915-15.632133 19.373157-15.364917 25.652732 0.267216 5.344319 9.753382 14.296054 15.231309 14.296054 5.477927 0 15.097701-8.818127 15.364917-14.162446 0.267216-6.413183-7.348439-13.22719-15.231309-25.78634z" fill="#666666" p-id="3044"></path></svg>
