<svg t="1712289183663" class="icon" viewBox="0 0 1024 1024" version="1.1" xmlns="http://www.w3.org/2000/svg" p-id="5226"
     width="128" height="128">
  <path
    d="M911.792128 804.800512a58.822656 58.822656 0 0 0-3.188736-3.16416l0.62464-7.182336a77.83424 77.83424 0 0 0 3.872768-2.490368c15.21664 12.724224 24.377344 31.471616 24.649728 51.767296 0.509952 38.166528-31.6928 69.699584-70.311936 69.699584H379.772928c-16.560128 0-29.997056-13.395968-29.997056-29.935616V505.151488l7.604224-2.025472 0.258048-0.069632 2.635776 9.893888-10.225664-0.544768c2.113536-39.688192 4.851712-58.181632 13.996032-79.005696 7.387136-16.822272 19.546112-35.772416 37.064704-58.73664 12.750848-16.713728 21.075968-26.793984 51.949568-63.479808 3.81952-4.538368 6.764544-8.046592 9.613312-11.452416 27.8528-33.296384 44.900352-55.246848 58.318848-76.167168 16.222208-25.2928 24.4736-45.740032 24.4736-61.698048V107.378688c0-12.35968 3.964928-33.787904 9.412608-41.914368 27.656192-41.27744 87.760896-44.132352 120.66816-6.408192 12.269568 14.067712 24.815616 38.772736 33.325056 66.115584 9.73824 31.299584 13.604864 63.543296 9.854976 92.28288-7.841792 60.051456-16.263168 105.797632-31.627264 159.008768h-2.985984l-5.552128-7.405568 0.794624-2.834432H886.9888c49.3056 0 90.30656 40.239104 89.901056 89.018368-0.251904 30.339072-15.990784 57.884672-41.033728 73.76896a77.74208 77.74208 0 0 0-4.59776-3.248128v-5.971968a77.74208 77.74208 0 0 0 4.59776-3.248128C961.11616 532.56192 976.896 560.431104 976.896 591.054848c0 35.571712-21.291008 67.110912-53.168128 80.953344a78.58176 78.58176 0 0 0-4.51584-4.100096l0.77824-5.443584a77.369344 77.369344 0 0 0 5.4784-2.674688c19.965952 16.592896 31.85664 41.224192 31.85664 67.823616 0 32.475136-17.74592 61.782016-45.533184 77.187072z"
    fill="#FCE92A" p-id="5227"></path>
  <path
    d="M36.66944 493.656064v448.407552c0 27.291648 22.130688 49.401856 49.432576 49.401856h176.013312c27.3408 0 49.430528-22.09792 49.430528-49.401856V493.656064c0-27.2896-22.130688-49.399808-49.430528-49.399808H86.102016c-27.342848 0-49.432576 22.09792-49.432576 49.399808z"
    fill="#F10400" p-id="5228"></path>
  <path
    d="M1007.616 591.054848a118.810624 118.810624 0 0 0-21.6064-68.294656c13.625344-19.42528 21.397504-42.805248 21.600256-67.264512 0.262144-31.453184-11.995136-61.097984-34.514944-83.80416-22.69184-22.880256-54.075392-35.81952-86.104064-35.81952h-157.601792c9.73824-43.008 15.446016-80.932864 19.798016-114.253824 5.326848-40.814592-3.033088-79.929344-10.983424-105.480192-9.803776-31.504384-24.203264-59.682816-39.50592-77.228032A108.16512 108.16512 0 0 0 617.172992 1.839104c-35.457024 0-68.634624 17.389568-88.164352 46.536704C515.024896 69.24288 514.048 107.008 514.048 107.378688v54.491136c0 4.896768-2.000896 19.759104-23.754752 51.922944-17.401856 25.731072-41.455616 54.503424-64.884736 82.3296-37.410816 44.43136-72.658944 86.396928-89.57952 124.930048-9.32864 21.241856-12.920832 43.032576-14.772224 63.639552C316.684288 456.083456 291.9424 434.176 262.115328 434.176H86.102016C53.198848 434.176 26.624 460.771328 26.624 493.656064v448.407552C26.624 974.9504 53.198848 1001.472 86.102016 1001.472h176.01536C295.018496 1001.472 321.536 974.9504 321.536 942.063616v-40.564736C329.728 926.181376 352.565248 944.128 379.772928 944.128h487.667712c26.957824 0 53.336064-11.053056 72.372224-30.347264 18.83136-19.085312 29.007872-44.107776 28.655616-70.467584a99.117056 99.117056 0 0 0-8.579072-38.899712 119.47008 119.47008 0 0 0 9.70752-13.201408 118.51776 118.51776 0 0 0 18.448384-63.598592c0-19.185664-4.698112-37.873664-13.324288-54.550528C995.350528 651.37664 1007.616 622.194688 1007.616 591.054848zM280.576 942.063616c0 10.299392-8.142848 18.448384-18.460672 18.448384H86.102016c-10.317824 0-18.518016-8.148992-18.518016-18.448384V493.656064A18.415616 18.415616 0 0 1 86.102016 475.136h176.01536c10.317824 0 18.460672 8.220672 18.460672 18.520064v448.407552z m634.288128-277.553152c19.529728 14.188544 32.223232 37.169152 32.223232 63.105024 0 30.633984-17.707008 57.145344-43.472896 69.914624 14.299136 10.510336 23.64416 27.318272 23.898112 46.327808 0.436224 32.622592-27.342848 59.31008-60.071936 59.31008H379.772928c-10.911744 0-19.324928-8.79616-19.324928-19.673088V513.021952l0.043008-0.069632c1.492992-28.039168 2.707456-52.703232 12.689408-75.431936C408.070144 358.07232 555.008 236.156928 555.008 161.869824V107.378688c0-7.856128 3.319808-29.190144 8.02816-36.214784 12.654592-18.886656 33.288192-28.389376 53.962752-28.389376 18.538496 0 37.337088 7.643136 50.745344 23.011328 21.409792 24.54528 48.422912 92.000256 40.78592 150.525952C703.496192 254.851072 695.47008 311.296 676.43392 376.832H886.9888c43.4176 0 80.021504 35.227648 79.661056 78.51008-0.241664 29.10208-16.463872 54.317056-40.347648 67.528704 24.064 13.309952 40.351744 38.852608 40.351744 68.233216 0.002048 33.826816-21.592064 62.582784-51.789824 73.406464z"
    fill="#333333" p-id="5229"></path>
</svg>
